<svg xmlns="http://www.w3.org/2000/svg" viewBox="0 0 800 404" width="800" height="404" role="img" aria-label="Spearman correlations between eight centrality measures on a synthetic Barabási–Albert network"><title>Spearman correlations between eight centrality measures on a synthetic Barabási–Albert network</title><text x="286" y="64" font-family="ui-sans-serif, system-ui, -apple-system, 'Segoe UI', Roboto, Helvetica, Arial, sans-serif" font-size="22" font-weight="600" fill="#8b96a8" text-anchor="end" >Degree</text><rect x="301.5" y="35.5" width="39" height="39" rx="4" fill="#d95926"/><rect x="343.5" y="35.5" width="39" height="39" rx="4" fill="#d06035"/><rect x="385.5" y="35.5" width="39" height="39" rx="4" fill="#b47663"/><rect x="427.5" y="35.5" width="39" height="39" rx="4" fill="#b27766"/><rect x="469.5" y="35.5" width="39" height="39" rx="4" fill="#d55c2d"/><rect x="511.5" y="35.5" width="39" height="39" rx="4" fill="#b7745f"/><rect x="553.5" y="35.5" width="39" height="39" rx="4" fill="#a5827c"/><rect x="595.5" y="35.5" width="39" height="39" rx="4" fill="#ba725a"/><text x="286" y="106" font-family="ui-sans-serif, system-ui, -apple-system, 'Segoe UI', Roboto, Helvetica, Arial, sans-serif" font-size="22" font-weight="600" fill="#8b96a8" text-anchor="end" >Betweenness</text><rect x="301.5" y="77.5" width="39" height="39" rx="4" fill="#d06035"/><rect x="343.5" y="77.5" width="39" height="39" rx="4" fill="#d95926"/><rect x="385.5" y="77.5" width="39" height="39" rx="4" fill="#bb7058"/><rect x="427.5" y="77.5" width="39" height="39" rx="4" fill="#b7745f"/><rect x="469.5" y="77.5" width="39" height="39" rx="4" fill="#ca653f"/><rect x="511.5" y="77.5" width="39" height="39" rx="4" fill="#bd6f54"/><rect x="553.5" y="77.5" width="39" height="39" rx="4" fill="#9a8a8f"/><rect x="595.5" y="77.5" width="39" height="39" rx="4" fill="#be6e53"/><text x="286" y="148" font-family="ui-sans-serif, system-ui, -apple-system, 'Segoe UI', Roboto, Helvetica, Arial, sans-serif" font-size="22" font-weight="600" fill="#8b96a8" text-anchor="end" >Closeness</text><rect x="301.5" y="119.5" width="39" height="39" rx="4" fill="#b47663"/><rect x="343.5" y="119.5" width="39" height="39" rx="4" fill="#bb7058"/><rect x="385.5" y="119.5" width="39" height="39" rx="4" fill="#d95926"/><rect x="427.5" y="119.5" width="39" height="39" rx="4" fill="#d75a29"/><rect x="469.5" y="119.5" width="39" height="39" rx="4" fill="#a08685"/><rect x="511.5" y="119.5" width="39" height="39" rx="4" fill="#d95926"/><rect x="553.5" y="119.5" width="39" height="39" rx="4" fill="#b67561"/><rect x="595.5" y="119.5" width="39" height="39" rx="4" fill="#d75b29"/><text x="286" y="190" font-family="ui-sans-serif, system-ui, -apple-system, 'Segoe UI', Roboto, Helvetica, Arial, sans-serif" font-size="22" font-weight="600" fill="#8b96a8" text-anchor="end" >Eigenvector</text><rect x="301.5" y="161.5" width="39" height="39" rx="4" fill="#b27766"/><rect x="343.5" y="161.5" width="39" height="39" rx="4" fill="#b7745f"/><rect x="385.5" y="161.5" width="39" height="39" rx="4" fill="#d75a29"/><rect x="427.5" y="161.5" width="39" height="39" rx="4" fill="#d95926"/><rect x="469.5" y="161.5" width="39" height="39" rx="4" fill="#9e8788"/><rect x="511.5" y="161.5" width="39" height="39" rx="4" fill="#d75a29"/><rect x="553.5" y="161.5" width="39" height="39" rx="4" fill="#b8735c"/><rect x="595.5" y="161.5" width="39" height="39" rx="4" fill="#d75a29"/><text x="286" y="232" font-family="ui-sans-serif, system-ui, -apple-system, 'Segoe UI', Roboto, Helvetica, Arial, sans-serif" font-size="22" font-weight="600" fill="#8b96a8" text-anchor="end" >PageRank</text><rect x="301.5" y="203.5" width="39" height="39" rx="4" fill="#d55c2d"/><rect x="343.5" y="203.5" width="39" height="39" rx="4" fill="#ca653f"/><rect x="385.5" y="203.5" width="39" height="39" rx="4" fill="#a08685"/><rect x="427.5" y="203.5" width="39" height="39" rx="4" fill="#9e8788"/><rect x="469.5" y="203.5" width="39" height="39" rx="4" fill="#d95926"/><rect x="511.5" y="203.5" width="39" height="39" rx="4" fill="#a38380"/><rect x="553.5" y="203.5" width="39" height="39" rx="4" fill="#9d888a"/><rect x="595.5" y="203.5" width="39" height="39" rx="4" fill="#a6817b"/><text x="286" y="274" font-family="ui-sans-serif, system-ui, -apple-system, 'Segoe UI', Roboto, Helvetica, Arial, sans-serif" font-size="22" font-weight="600" fill="#8b96a8" text-anchor="end" >Harmonic</text><rect x="301.5" y="245.5" width="39" height="39" rx="4" fill="#b7745f"/><rect x="343.5" y="245.5" width="39" height="39" rx="4" fill="#bd6f54"/><rect x="385.5" y="245.5" width="39" height="39" rx="4" fill="#d95926"/><rect x="427.5" y="245.5" width="39" height="39" rx="4" fill="#d75a29"/><rect x="469.5" y="245.5" width="39" height="39" rx="4" fill="#a38380"/><rect x="511.5" y="245.5" width="39" height="39" rx="4" fill="#d95926"/><rect x="553.5" y="245.5" width="39" height="39" rx="4" fill="#b67460"/><rect x="595.5" y="245.5" width="39" height="39" rx="4" fill="#d85a28"/><text x="286" y="316" font-family="ui-sans-serif, system-ui, -apple-system, 'Segoe UI', Roboto, Helvetica, Arial, sans-serif" font-size="22" font-weight="600" fill="#8b96a8" text-anchor="end" >Clustering</text><rect x="301.5" y="287.5" width="39" height="39" rx="4" fill="#a5827c"/><rect x="343.5" y="287.5" width="39" height="39" rx="4" fill="#9a8a8f"/><rect x="385.5" y="287.5" width="39" height="39" rx="4" fill="#b67561"/><rect x="427.5" y="287.5" width="39" height="39" rx="4" fill="#b8735c"/><rect x="469.5" y="287.5" width="39" height="39" rx="4" fill="#9d888a"/><rect x="511.5" y="287.5" width="39" height="39" rx="4" fill="#b67460"/><rect x="553.5" y="287.5" width="39" height="39" rx="4" fill="#d95926"/><rect x="595.5" y="287.5" width="39" height="39" rx="4" fill="#ba715a"/><text x="286" y="358" font-family="ui-sans-serif, system-ui, -apple-system, 'Segoe UI', Roboto, Helvetica, Arial, sans-serif" font-size="22" font-weight="600" fill="#8b96a8" text-anchor="end" >Subgraph</text><rect x="301.5" y="329.5" width="39" height="39" rx="4" fill="#ba725a"/><rect x="343.5" y="329.5" width="39" height="39" rx="4" fill="#be6e53"/><rect x="385.5" y="329.5" width="39" height="39" rx="4" fill="#d75b29"/><rect x="427.5" y="329.5" width="39" height="39" rx="4" fill="#d75a29"/><rect x="469.5" y="329.5" width="39" height="39" rx="4" fill="#a6817b"/><rect x="511.5" y="329.5" width="39" height="39" rx="4" fill="#d85a28"/><rect x="553.5" y="329.5" width="39" height="39" rx="4" fill="#ba715a"/><rect x="595.5" y="329.5" width="39" height="39" rx="4" fill="#d95926"/><defs><linearGradient id="lg" x1="0" y1="0" x2="0" y2="1"><stop offset="0" stop-color="#d95926"/><stop offset="0.5" stop-color="#8b96a8"/><stop offset="1" stop-color="#3987e5"/></linearGradient></defs><rect x="670" y="74" width="18" height="256" rx="4" fill="url(#lg)"/><text x="698" y="84" font-family="ui-sans-serif, system-ui, -apple-system, 'Segoe UI', Roboto, Helvetica, Arial, sans-serif" font-size="22" font-weight="650" fill="#8b96a8" text-anchor="start" >+1</text><text x="698" y="210" font-family="ui-sans-serif, system-ui, -apple-system, 'Segoe UI', Roboto, Helvetica, Arial, sans-serif" font-size="22" font-weight="650" fill="#8b96a8" text-anchor="start" >0</text><text x="698" y="336" font-family="ui-sans-serif, system-ui, -apple-system, 'Segoe UI', Roboto, Helvetica, Arial, sans-serif" font-size="22" font-weight="650" fill="#8b96a8" text-anchor="start" >−1</text></svg>
