<svg xmlns="http://www.w3.org/2000/svg" viewBox="0 0 800 500" width="800" height="500" role="img" aria-label="A bacterial lineage: one rod-shaped cell dividing over four generations, with variable cell sizes and division times"><title>A bacterial lineage: one rod-shaped cell dividing over four generations, with variable cell sizes and division times</title><g fill="none" stroke="#8b96a8" stroke-width="2.2" stroke-opacity=".5" stroke-linecap="round"><path d="M70 250 C134.7 250 134.7 138 199.3 138"/><path d="M199.3 138 C261.5 138 261.5 82 323.7 82"/><path d="M323.7 82 C384.8 82 384.8 54 445.9 54"/><path d="M445.9 54 C529.9 54 529.9 40 613.9 40"/><path d="M445.9 54 C529.9 54 529.9 68 613.9 68"/><path d="M323.7 82 C384.8 82 384.8 110 445.9 110"/><path d="M445.9 110 C516.2 110 516.2 96 586.6 96"/><path d="M445.9 110 C516.2 110 516.2 124 586.6 124"/><path d="M199.3 138 C261.5 138 261.5 194 323.7 194"/><path d="M323.7 194 C384.9 194 384.9 166 446.1 166"/><path d="M446.1 166 C505.6 166 505.6 152 565.1 152"/><path d="M446.1 166 C505.6 166 505.6 180 565.1 180"/><path d="M323.7 194 C384.9 194 384.9 222 446.1 222"/><path d="M446.1 222 C514.6 222 514.6 208 583.1 208"/><path d="M446.1 222 C514.6 222 514.6 236 583.1 236"/><path d="M70 250 C134.7 250 134.7 362 199.3 362"/><path d="M199.3 362 C259.9 362 259.9 306 320.5 306"/><path d="M320.5 306 C388.9 306 388.9 278 457.3 278"/><path d="M457.3 278 C524.8 278 524.8 264 592.3 264"/><path d="M457.3 278 C524.8 278 524.8 292 592.3 292"/><path d="M320.5 306 C388.9 306 388.9 334 457.3 334"/><path d="M457.3 334 C538.9 334 538.9 320 620.4 320"/><path d="M457.3 334 C538.9 334 538.9 348 620.4 348"/><path d="M199.3 362 C259.9 362 259.9 418 320.5 418"/><path d="M320.5 418 C403.1 418 403.1 390 485.8 390"/><path d="M485.8 390 C549.6 390 549.6 376 613.5 376"/><path d="M485.8 390 C549.6 390 549.6 404 613.5 404"/><path d="M320.5 418 C403.1 418 403.1 446 485.8 446"/><path d="M485.8 446 C566.8 446 566.8 432 647.8 432"/><path d="M485.8 446 C566.8 446 566.8 460 647.8 460"/></g><rect x="47" y="240" width="46" height="20" rx="10" fill="#d95926" fill-opacity="1.00"/><rect x="175.2" y="128.5" width="48.3" height="19" rx="9.5" fill="#d95926" fill-opacity="0.94"/><rect x="300" y="73" width="47.2" height="18" rx="9" fill="#d95926" fill-opacity="0.88"/><rect x="425.7" y="45.5" width="40.3" height="17" rx="8.5" fill="#d95926" fill-opacity="0.82"/><rect x="597" y="32" width="33.8" height="16" rx="8" fill="#d95926" fill-opacity="0.76"/><rect x="594.8" y="60" width="38.2" height="16" rx="8" fill="#d95926" fill-opacity="0.76"/><rect x="424.5" y="101.5" width="42.9" height="17" rx="8.5" fill="#d95926" fill-opacity="0.82"/><rect x="567" y="88" width="39" height="16" rx="8" fill="#d95926" fill-opacity="0.76"/><rect x="568.7" y="116" width="35.7" height="16" rx="8" fill="#d95926" fill-opacity="0.76"/><rect x="299.2" y="185" width="48.8" height="18" rx="9" fill="#d95926" fill-opacity="0.88"/><rect x="425.4" y="157.5" width="41.5" height="17" rx="8.5" fill="#d95926" fill-opacity="0.82"/><rect x="547.5" y="144" width="35.4" height="16" rx="8" fill="#d95926" fill-opacity="0.76"/><rect x="546.7" y="172" width="36.8" height="16" rx="8" fill="#d95926" fill-opacity="0.76"/><rect x="421.2" y="213.5" width="49.9" height="17" rx="8.5" fill="#d95926" fill-opacity="0.82"/><rect x="562.8" y="200" width="40.6" height="16" rx="8" fill="#d95926" fill-opacity="0.76"/><rect x="561.9" y="228" width="42.4" height="16" rx="8" fill="#d95926" fill-opacity="0.76"/><rect x="175" y="352.5" width="48.7" height="19" rx="9.5" fill="#d95926" fill-opacity="0.94"/><rect x="297.2" y="297" width="46.5" height="18" rx="9" fill="#d95926" fill-opacity="0.88"/><rect x="435" y="269.5" width="44.7" height="17" rx="8.5" fill="#d95926" fill-opacity="0.82"/><rect x="570.8" y="256" width="42.9" height="16" rx="8" fill="#d95926" fill-opacity="0.76"/><rect x="571.9" y="284" width="40.7" height="16" rx="8" fill="#d95926" fill-opacity="0.76"/><rect x="435.1" y="325.5" width="44.5" height="17" rx="8.5" fill="#d95926" fill-opacity="0.82"/><rect x="599.7" y="312" width="41.5" height="16" rx="8" fill="#d95926" fill-opacity="0.76"/><rect x="602.2" y="340" width="36.5" height="16" rx="8" fill="#d95926" fill-opacity="0.76"/><rect x="300.7" y="409" width="39.5" height="18" rx="9" fill="#d95926" fill-opacity="0.88"/><rect x="467.7" y="381.5" width="36.2" height="17" rx="8.5" fill="#d95926" fill-opacity="0.82"/><rect x="594.9" y="368" width="37.1" height="16" rx="8" fill="#d95926" fill-opacity="0.76"/><rect x="596.6" y="396" width="33.7" height="16" rx="8" fill="#d95926" fill-opacity="0.76"/><rect x="466.5" y="437.5" width="38.6" height="17" rx="8.5" fill="#d95926" fill-opacity="0.82"/><rect x="631.3" y="424" width="33.1" height="16" rx="8" fill="#d95926" fill-opacity="0.76"/><rect x="630.9" y="452" width="33.8" height="16" rx="8" fill="#d95926" fill-opacity="0.76"/></svg>
